<mxfile host="app.diagrams.net" modified="2023-03-20T11:29:39.303Z" agent="5.0 (X11; Linux x86_64) AppleWebKit/537.36 (KHTML, like Gecko) Chrome/109.0.0.0 Safari/537.36" etag="jQfzwaHttWuG7W1T2iq1" version="21.0.6" type="github">
  <diagram id="I_fSzTSYJhP3WbuMLIgA" name="Page-1">
    <mxGraphModel dx="3790" dy="1563" grid="1" gridSize="10" guides="1" tooltips="1" connect="1" arrows="1" fold="1" page="1" pageScale="1" pageWidth="827" pageHeight="1169" math="0" shadow="0">
      <root>
        <mxCell id="0" />
        <mxCell id="1" parent="0" />
        <mxCell id="iSJP6n-plgs5U3rNxnB9-100" value="" style="rounded=1;whiteSpace=wrap;html=1;fillColor=none;" parent="1" vertex="1">
          <mxGeometry x="507" y="869" width="240" height="382" as="geometry" />
        </mxCell>
        <mxCell id="iSJP6n-plgs5U3rNxnB9-62" value="" style="rounded=1;whiteSpace=wrap;html=1;rotation=-90;fillColor=none;" parent="1" vertex="1">
          <mxGeometry x="275.37" y="669.62" width="253.75" height="196.5" as="geometry" />
        </mxCell>
        <mxCell id="iSJP6n-plgs5U3rNxnB9-85" value="" style="whiteSpace=wrap;html=1;aspect=fixed;fillColor=none;" parent="1" vertex="1">
          <mxGeometry x="353" y="660" width="80" height="80" as="geometry" />
        </mxCell>
        <mxCell id="iSJP6n-plgs5U3rNxnB9-25" value="" style="rounded=1;whiteSpace=wrap;html=1;fillColor=none;" parent="1" vertex="1">
          <mxGeometry x="-50" y="190" width="810" height="370" as="geometry" />
        </mxCell>
        <mxCell id="iSJP6n-plgs5U3rNxnB9-29" value="&lt;span style=&quot;color: rgba(0, 0, 0, 0); font-family: monospace; font-size: 0px; text-align: start;&quot;&gt;%3CmxGraphModel%3E%3Croot%3E%3CmxCell%20id%3D%220%22%2F%3E%3CmxCell%20id%3D%221%22%20parent%3D%220%22%2F%3E%3CmxCell%20id%3D%222%22%20value%3D%22nii.gz.%20files%22%20style%3D%22text%3Bhtml%3D1%3BstrokeColor%3Dnone%3BfillColor%3Dnone%3Balign%3Dcenter%3BverticalAlign%3Dmiddle%3BwhiteSpace%3Dwrap%3Brounded%3D0%3B%22%20vertex%3D%221%22%20parent%3D%221%22%3E%3CmxGeometry%20x%3D%22250%22%20y%3D%22310%22%20width%3D%2260%22%20height%3D%2230%22%20as%3D%22geometry%22%2F%3E%3C%2FmxCell%3E%3C%2Froot%3E%3C%2FmxGraphModel%3E&lt;/span&gt;" style="rounded=1;whiteSpace=wrap;html=1;dashed=1;fillColor=none;" parent="1" vertex="1">
          <mxGeometry x="76" y="265" width="604" height="245" as="geometry" />
        </mxCell>
        <mxCell id="iSJP6n-plgs5U3rNxnB9-11" value="" style="ellipse;whiteSpace=wrap;html=1;aspect=fixed;" parent="1" vertex="1">
          <mxGeometry x="-12.5" y="370" width="30" height="30" as="geometry" />
        </mxCell>
        <mxCell id="iSJP6n-plgs5U3rNxnB9-19" value="4DSegment" style="whiteSpace=wrap;html=1;aspect=fixed;" parent="1" vertex="1">
          <mxGeometry x="394" y="290" width="80" height="80" as="geometry" />
        </mxCell>
        <mxCell id="iSJP6n-plgs5U3rNxnB9-23" value="CCITK" style="whiteSpace=wrap;html=1;aspect=fixed;" parent="1" vertex="1">
          <mxGeometry x="394" y="390" width="80" height="80" as="geometry" />
        </mxCell>
        <mxCell id="iSJP6n-plgs5U3rNxnB9-28" value="Authentication" style="rounded=0;whiteSpace=wrap;html=1;fillColor=none;" parent="1" vertex="1">
          <mxGeometry x="333" y="812" width="120" height="60" as="geometry" />
        </mxCell>
        <mxCell id="iSJP6n-plgs5U3rNxnB9-30" value="ExpressJS" style="text;html=1;strokeColor=none;fillColor=none;align=center;verticalAlign=middle;whiteSpace=wrap;rounded=0;dashed=1;" parent="1" vertex="1">
          <mxGeometry x="105" y="235" width="117.5" height="30" as="geometry" />
        </mxCell>
        <mxCell id="iSJP6n-plgs5U3rNxnB9-32" value="nii.gz. files" style="text;html=1;strokeColor=none;fillColor=none;align=center;verticalAlign=middle;whiteSpace=wrap;rounded=0;" parent="1" vertex="1">
          <mxGeometry x="240" y="310" width="60" height="20" as="geometry" />
        </mxCell>
        <mxCell id="iSJP6n-plgs5U3rNxnB9-34" value="User" style="text;html=1;strokeColor=none;fillColor=none;align=center;verticalAlign=middle;whiteSpace=wrap;rounded=0;" parent="1" vertex="1">
          <mxGeometry x="360" y="1029" width="50" height="10" as="geometry" />
        </mxCell>
        <mxCell id="iSJP6n-plgs5U3rNxnB9-38" value="" style="verticalLabelPosition=bottom;html=1;verticalAlign=top;align=center;strokeColor=none;fillColor=#00BEF2;shape=mxgraph.azure.user;" parent="1" vertex="1">
          <mxGeometry x="360" y="970" width="47.5" height="50" as="geometry" />
        </mxCell>
        <mxCell id="iSJP6n-plgs5U3rNxnB9-41" value="" style="endArrow=classic;html=1;rounded=0;exitX=1;exitY=0.5;exitDx=0;exitDy=0;" parent="1" edge="1" target="iSJP6n-plgs5U3rNxnB9-66">
          <mxGeometry width="50" height="50" relative="1" as="geometry">
            <mxPoint x="230" y="330" as="sourcePoint" />
            <mxPoint x="321" y="330.9" as="targetPoint" />
          </mxGeometry>
        </mxCell>
        <mxCell id="iSJP6n-plgs5U3rNxnB9-42" value="" style="endArrow=classic;html=1;rounded=0;exitX=1.001;exitY=0.627;exitDx=0;exitDy=0;exitPerimeter=0;entryX=0;entryY=0.75;entryDx=0;entryDy=0;" parent="1" edge="1" target="THO80avu8P2htPNswEXX-1" source="iSJP6n-plgs5U3rNxnB9-65">
          <mxGeometry width="50" height="50" relative="1" as="geometry">
            <mxPoint x="230" y="430" as="sourcePoint" />
            <mxPoint x="320" y="430.06999999999994" as="targetPoint" />
          </mxGeometry>
        </mxCell>
        <mxCell id="iSJP6n-plgs5U3rNxnB9-47" value="" style="sketch=0;outlineConnect=0;fontColor=#232F3E;gradientColor=none;fillColor=#000000;strokeColor=none;dashed=0;verticalLabelPosition=bottom;verticalAlign=top;align=center;html=1;fontSize=12;fontStyle=0;aspect=fixed;pointerEvents=1;shape=mxgraph.aws4.door_lock;" parent="1" vertex="1">
          <mxGeometry x="343" y="770" width="38" height="38" as="geometry" />
        </mxCell>
        <mxCell id="iSJP6n-plgs5U3rNxnB9-64" value="CardioNifty" style="whiteSpace=wrap;html=1;aspect=fixed;" parent="1" vertex="1">
          <mxGeometry x="150" y="290" width="80" height="80" as="geometry" />
        </mxCell>
        <mxCell id="iSJP6n-plgs5U3rNxnB9-65" value="dcm2niix" style="whiteSpace=wrap;html=1;aspect=fixed;" parent="1" vertex="1">
          <mxGeometry x="150" y="390" width="80" height="80" as="geometry" />
        </mxCell>
        <mxCell id="iSJP6n-plgs5U3rNxnB9-66" value="App API" style="rounded=1;whiteSpace=wrap;html=1;" parent="1" vertex="1">
          <mxGeometry x="354" y="308.75" width="40" height="42.5" as="geometry" />
        </mxCell>
        <mxCell id="iSJP6n-plgs5U3rNxnB9-67" value="&lt;b&gt;&lt;font style=&quot;font-size: 18px;&quot;&gt;Cardio-Verse&lt;/font&gt;&lt;/b&gt;" style="text;html=1;strokeColor=none;fillColor=none;align=center;verticalAlign=middle;whiteSpace=wrap;rounded=0;" parent="1" vertex="1">
          <mxGeometry y="158" width="160" height="30" as="geometry" />
        </mxCell>
        <mxCell id="iSJP6n-plgs5U3rNxnB9-69" value="nii.gz. files" style="text;html=1;strokeColor=none;fillColor=none;align=center;verticalAlign=middle;whiteSpace=wrap;rounded=0;" parent="1" vertex="1">
          <mxGeometry x="240" y="425" width="60" height="15" as="geometry" />
        </mxCell>
        <mxCell id="iSJP6n-plgs5U3rNxnB9-70" value="" style="endArrow=classic;html=1;rounded=0;entryX=0;entryY=0.5;entryDx=0;entryDy=0;exitX=1;exitY=0.5;exitDx=0;exitDy=0;" parent="1" edge="1" target="THO80avu8P2htPNswEXX-2" source="iSJP6n-plgs5U3rNxnB9-11">
          <mxGeometry width="50" height="50" relative="1" as="geometry">
            <mxPoint x="19.5" y="385.5" as="sourcePoint" />
            <mxPoint x="80" y="386" as="targetPoint" />
          </mxGeometry>
        </mxCell>
        <mxCell id="iSJP6n-plgs5U3rNxnB9-71" value="DICOM Input" style="text;html=1;strokeColor=none;fillColor=none;align=center;verticalAlign=middle;whiteSpace=wrap;rounded=0;" parent="1" vertex="1">
          <mxGeometry x="-36.25" y="406.25" width="77.5" height="30" as="geometry" />
        </mxCell>
        <mxCell id="iSJP6n-plgs5U3rNxnB9-77" value="CLI/ Node-graph UI" style="text;html=1;strokeColor=none;fillColor=none;align=center;verticalAlign=middle;whiteSpace=wrap;rounded=0;" parent="1" vertex="1">
          <mxGeometry x="355.5" y="685" width="75" height="30" as="geometry" />
        </mxCell>
        <mxCell id="iSJP6n-plgs5U3rNxnB9-83" value="" style="endArrow=classic;startArrow=classic;html=1;rounded=0;entryX=0;entryY=0.5;entryDx=0;entryDy=0;exitX=0.5;exitY=0;exitDx=0;exitDy=0;" parent="1" edge="1">
          <mxGeometry width="50" height="50" relative="1" as="geometry">
            <mxPoint x="386.82" y="643" as="sourcePoint" />
            <mxPoint x="386.82" y="560" as="targetPoint" />
          </mxGeometry>
        </mxCell>
        <mxCell id="iSJP6n-plgs5U3rNxnB9-88" value="" style="endArrow=classic;html=1;rounded=0;entryX=0.5;entryY=1;entryDx=0;entryDy=0;" parent="1" source="iSJP6n-plgs5U3rNxnB9-28" target="iSJP6n-plgs5U3rNxnB9-85" edge="1">
          <mxGeometry width="50" height="50" relative="1" as="geometry">
            <mxPoint x="248" y="710" as="sourcePoint" />
            <mxPoint x="298" y="660" as="targetPoint" />
          </mxGeometry>
        </mxCell>
        <mxCell id="iSJP6n-plgs5U3rNxnB9-113" value="" style="endArrow=classic;html=1;rounded=0;dashed=1;" parent="1" edge="1">
          <mxGeometry width="50" height="50" relative="1" as="geometry">
            <mxPoint x="207" y="1000" as="sourcePoint" />
            <mxPoint x="349" y="1000" as="targetPoint" />
          </mxGeometry>
        </mxCell>
        <mxCell id="AIP2rtYdTXtsvyKJKe4--31" value="&lt;b&gt;&lt;font style=&quot;font-size: 14px;&quot;&gt;2&lt;/font&gt;&lt;/b&gt;" style="text;html=1;strokeColor=none;fillColor=#dae8fc;align=center;verticalAlign=middle;whiteSpace=wrap;rounded=0;" parent="1" vertex="1">
          <mxGeometry x="404.87" y="774" width="40.25" height="30" as="geometry" />
        </mxCell>
        <mxCell id="AIP2rtYdTXtsvyKJKe4--34" value="&lt;b&gt;&lt;font style=&quot;font-size: 14px;&quot;&gt;4&lt;/font&gt;&lt;/b&gt;" style="text;html=1;strokeColor=none;fillColor=#dae8fc;align=center;verticalAlign=middle;whiteSpace=wrap;rounded=0;" parent="1" vertex="1">
          <mxGeometry x="480" y="270" width="40.25" height="30" as="geometry" />
        </mxCell>
        <mxCell id="iSJP6n-plgs5U3rNxnB9-90" value="" style="rounded=1;whiteSpace=wrap;html=1;fillColor=none;" parent="1" vertex="1">
          <mxGeometry x="-36" y="900" width="242.5" height="350" as="geometry" />
        </mxCell>
        <mxCell id="iSJP6n-plgs5U3rNxnB9-91" value="&lt;b&gt;Actors&lt;/b&gt;" style="text;html=1;strokeColor=none;fillColor=none;align=center;verticalAlign=middle;whiteSpace=wrap;rounded=0;" parent="1" vertex="1">
          <mxGeometry x="44" y="870" width="55" height="30" as="geometry" />
        </mxCell>
        <mxCell id="AIP2rtYdTXtsvyKJKe4--21" value="" style="group" parent="1" vertex="1" connectable="0">
          <mxGeometry x="2.5" y="1160" width="174" height="70" as="geometry" />
        </mxCell>
        <mxCell id="iSJP6n-plgs5U3rNxnB9-95" value="" style="sketch=0;pointerEvents=1;shadow=0;dashed=0;html=1;strokeColor=none;labelPosition=center;verticalLabelPosition=bottom;verticalAlign=top;outlineConnect=0;align=center;shape=mxgraph.office.users.user;fillColor=#2072B8;" parent="AIP2rtYdTXtsvyKJKe4--21" vertex="1">
          <mxGeometry width="66.5" height="70" as="geometry" />
        </mxCell>
        <mxCell id="iSJP6n-plgs5U3rNxnB9-99" value="Platform User" style="text;html=1;strokeColor=none;fillColor=none;align=center;verticalAlign=middle;whiteSpace=wrap;rounded=0;" parent="AIP2rtYdTXtsvyKJKe4--21" vertex="1">
          <mxGeometry x="84" y="20" width="90" height="30" as="geometry" />
        </mxCell>
        <mxCell id="AIP2rtYdTXtsvyKJKe4--22" value="" style="group" parent="1" vertex="1" connectable="0">
          <mxGeometry y="1040" width="179" height="82" as="geometry" />
        </mxCell>
        <mxCell id="iSJP6n-plgs5U3rNxnB9-96" value="" style="shape=mxgraph.cisco.people.androgenous_person;html=1;pointerEvents=1;dashed=0;fillColor=#036897;strokeColor=#ffffff;strokeWidth=2;verticalLabelPosition=bottom;verticalAlign=top;align=center;outlineConnect=0;" parent="AIP2rtYdTXtsvyKJKe4--22" vertex="1">
          <mxGeometry width="69" height="82" as="geometry" />
        </mxCell>
        <mxCell id="iSJP6n-plgs5U3rNxnB9-97" value="Application Developers" style="text;html=1;strokeColor=none;fillColor=none;align=center;verticalAlign=middle;whiteSpace=wrap;rounded=0;" parent="AIP2rtYdTXtsvyKJKe4--22" vertex="1">
          <mxGeometry x="84" y="33" width="95" height="30" as="geometry" />
        </mxCell>
        <mxCell id="AIP2rtYdTXtsvyKJKe4--23" value="" style="group" parent="1" vertex="1" connectable="0">
          <mxGeometry x="-2.5" y="920" width="174" height="82" as="geometry" />
        </mxCell>
        <mxCell id="iSJP6n-plgs5U3rNxnB9-93" value="" style="shape=mxgraph.cisco.people.androgenous_person;html=1;pointerEvents=1;dashed=0;fillColor=#036897;strokeColor=#ffffff;strokeWidth=2;verticalLabelPosition=bottom;verticalAlign=top;align=center;outlineConnect=0;" parent="AIP2rtYdTXtsvyKJKe4--23" vertex="1">
          <mxGeometry width="69" height="82" as="geometry" />
        </mxCell>
        <mxCell id="iSJP6n-plgs5U3rNxnB9-98" value="Platform Developers" style="text;html=1;strokeColor=none;fillColor=none;align=center;verticalAlign=middle;whiteSpace=wrap;rounded=0;" parent="AIP2rtYdTXtsvyKJKe4--23" vertex="1">
          <mxGeometry x="79" y="28" width="95" height="30" as="geometry" />
        </mxCell>
        <mxCell id="AIP2rtYdTXtsvyKJKe4--29" value="&lt;b&gt;&lt;font style=&quot;font-size: 14px;&quot;&gt;1&lt;/font&gt;&lt;/b&gt;" style="text;html=1;strokeColor=none;fillColor=#dae8fc;align=center;verticalAlign=middle;whiteSpace=wrap;rounded=0;" parent="1" vertex="1">
          <mxGeometry x="3.8799999999999955" y="867" width="40.25" height="30" as="geometry" />
        </mxCell>
        <mxCell id="THO80avu8P2htPNswEXX-1" value="App API" style="rounded=1;whiteSpace=wrap;html=1;" vertex="1" parent="1">
          <mxGeometry x="354" y="408.75" width="40" height="42.5" as="geometry" />
        </mxCell>
        <mxCell id="THO80avu8P2htPNswEXX-2" value="App API" style="rounded=1;whiteSpace=wrap;html=1;" vertex="1" parent="1">
          <mxGeometry x="110" y="308.75" width="40" height="42.5" as="geometry" />
        </mxCell>
        <mxCell id="THO80avu8P2htPNswEXX-3" value="App API" style="rounded=1;whiteSpace=wrap;html=1;" vertex="1" parent="1">
          <mxGeometry x="110" y="408.75" width="40" height="42.5" as="geometry" />
        </mxCell>
        <mxCell id="THO80avu8P2htPNswEXX-6" value="" style="endArrow=classic;html=1;rounded=0;exitX=1;exitY=0.5;exitDx=0;exitDy=0;startArrow=none;" edge="1" parent="1" source="iSJP6n-plgs5U3rNxnB9-26">
          <mxGeometry width="50" height="50" relative="1" as="geometry">
            <mxPoint x="516" y="387.26000000000005" as="sourcePoint" />
            <mxPoint x="640" y="387.26000000000005" as="targetPoint" />
          </mxGeometry>
        </mxCell>
        <mxCell id="THO80avu8P2htPNswEXX-7" value="" style="endArrow=classic;html=1;rounded=0;exitX=1;exitY=0.5;exitDx=0;exitDy=0;entryX=0;entryY=0.5;entryDx=0;entryDy=0;" edge="1" parent="1" target="iSJP6n-plgs5U3rNxnB9-26">
          <mxGeometry width="50" height="50" relative="1" as="geometry">
            <mxPoint x="474" y="429.52000000000004" as="sourcePoint" />
            <mxPoint x="598" y="429.52000000000004" as="targetPoint" />
          </mxGeometry>
        </mxCell>
        <mxCell id="THO80avu8P2htPNswEXX-8" value="" style="endArrow=classic;html=1;rounded=0;exitX=1;exitY=0.5;exitDx=0;exitDy=0;entryX=0;entryY=0.5;entryDx=0;entryDy=0;" edge="1" parent="1" target="THO80avu8P2htPNswEXX-1">
          <mxGeometry width="50" height="50" relative="1" as="geometry">
            <mxPoint x="230" y="340" as="sourcePoint" />
            <mxPoint x="354" y="340" as="targetPoint" />
          </mxGeometry>
        </mxCell>
        <mxCell id="THO80avu8P2htPNswEXX-9" value="" style="endArrow=classic;html=1;rounded=0;entryX=-0.004;entryY=0.638;entryDx=0;entryDy=0;exitX=1;exitY=0.5;exitDx=0;exitDy=0;entryPerimeter=0;" edge="1" parent="1" source="iSJP6n-plgs5U3rNxnB9-65" target="iSJP6n-plgs5U3rNxnB9-66">
          <mxGeometry width="50" height="50" relative="1" as="geometry">
            <mxPoint x="230" y="440" as="sourcePoint" />
            <mxPoint x="354" y="440" as="targetPoint" />
          </mxGeometry>
        </mxCell>
        <mxCell id="THO80avu8P2htPNswEXX-10" value="" style="endArrow=classic;html=1;rounded=0;entryX=0;entryY=0.5;entryDx=0;entryDy=0;exitX=1;exitY=0.5;exitDx=0;exitDy=0;" edge="1" parent="1" source="iSJP6n-plgs5U3rNxnB9-11" target="THO80avu8P2htPNswEXX-3">
          <mxGeometry width="50" height="50" relative="1" as="geometry">
            <mxPoint x="29.5" y="395.5" as="sourcePoint" />
            <mxPoint x="120" y="340" as="targetPoint" />
          </mxGeometry>
        </mxCell>
        <mxCell id="THO80avu8P2htPNswEXX-11" value="Docker Compose" style="text;html=1;strokeColor=none;fillColor=none;align=center;verticalAlign=middle;whiteSpace=wrap;rounded=0;dashed=1;" vertex="1" parent="1">
          <mxGeometry x="510" y="270" width="117.5" height="30" as="geometry" />
        </mxCell>
        <mxCell id="iSJP6n-plgs5U3rNxnB9-26" value="Bioinformatics Visualisations" style="whiteSpace=wrap;html=1;aspect=fixed;" parent="1" vertex="1">
          <mxGeometry x="575.25" y="345" width="80" height="80" as="geometry" />
        </mxCell>
        <mxCell id="THO80avu8P2htPNswEXX-13" value="" style="endArrow=classic;html=1;rounded=0;exitX=1;exitY=0.5;exitDx=0;exitDy=0;entryX=0;entryY=0.5;entryDx=0;entryDy=0;" edge="1" parent="1" source="iSJP6n-plgs5U3rNxnB9-19" target="iSJP6n-plgs5U3rNxnB9-26">
          <mxGeometry width="50" height="50" relative="1" as="geometry">
            <mxPoint x="484" y="439.52000000000004" as="sourcePoint" />
            <mxPoint x="585" y="395" as="targetPoint" />
          </mxGeometry>
        </mxCell>
        <mxCell id="THO80avu8P2htPNswEXX-14" value="&lt;b&gt;&lt;font style=&quot;font-size: 14px;&quot;&gt;3&lt;/font&gt;&lt;/b&gt;" style="text;html=1;strokeColor=none;fillColor=#dae8fc;align=center;verticalAlign=middle;whiteSpace=wrap;rounded=0;" vertex="1" parent="1">
          <mxGeometry x="441" y="680" width="40.25" height="30" as="geometry" />
        </mxCell>
        <mxCell id="THO80avu8P2htPNswEXX-15" value="" style="endArrow=classic;html=1;rounded=0;entryX=0.5;entryY=1;entryDx=0;entryDy=0;" edge="1" parent="1">
          <mxGeometry width="50" height="50" relative="1" as="geometry">
            <mxPoint x="387" y="960" as="sourcePoint" />
            <mxPoint x="387.41" y="896" as="targetPoint" />
          </mxGeometry>
        </mxCell>
        <mxCell id="iSJP6n-plgs5U3rNxnB9-107" value="" style="rounded=1;whiteSpace=wrap;html=1;dashed=1;fillColor=none;" parent="1" vertex="1">
          <mxGeometry x="543.5" y="1100" width="173.5" height="132" as="geometry" />
        </mxCell>
        <mxCell id="iSJP6n-plgs5U3rNxnB9-31" value="" style="rounded=1;whiteSpace=wrap;html=1;fillColor=none;dashed=1;" parent="1" vertex="1">
          <mxGeometry x="543.5" y="939" width="173.5" height="122" as="geometry" />
        </mxCell>
        <mxCell id="iSJP6n-plgs5U3rNxnB9-52" value="Docker container" style="text;html=1;strokeColor=none;fillColor=none;align=center;verticalAlign=middle;whiteSpace=wrap;rounded=0;" parent="1" vertex="1">
          <mxGeometry x="544.5" y="881" width="112.5" height="30" as="geometry" />
        </mxCell>
        <mxCell id="iSJP6n-plgs5U3rNxnB9-53" value="Biobank" style="ellipse;shape=cloud;whiteSpace=wrap;html=1;fillColor=none;" parent="1" vertex="1">
          <mxGeometry x="622.25" y="1138.5" width="85.25" height="55" as="geometry" />
        </mxCell>
        <mxCell id="iSJP6n-plgs5U3rNxnB9-54" value="&lt;font style=&quot;font-size: 12px;&quot;&gt;Internal data &lt;br&gt;drives&lt;/font&gt;" style="shape=cylinder3;whiteSpace=wrap;html=1;boundedLbl=1;backgroundOutline=1;size=15;fillColor=none;" parent="1" vertex="1">
          <mxGeometry x="557" y="1120" width="50" height="90" as="geometry" />
        </mxCell>
        <mxCell id="iSJP6n-plgs5U3rNxnB9-55" value="Code" style="shape=note;whiteSpace=wrap;html=1;backgroundOutline=1;darkOpacity=0.05;fillColor=none;" parent="1" vertex="1">
          <mxGeometry x="572.25" y="960.0000000000001" width="50" height="70" as="geometry" />
        </mxCell>
        <mxCell id="iSJP6n-plgs5U3rNxnB9-101" value="&lt;b&gt;Application Infrastructure&lt;/b&gt;" style="text;html=1;strokeColor=none;fillColor=none;align=center;verticalAlign=middle;whiteSpace=wrap;rounded=0;dashed=1;" parent="1" vertex="1">
          <mxGeometry x="565.13" y="836.12" width="163" height="30" as="geometry" />
        </mxCell>
        <mxCell id="iSJP6n-plgs5U3rNxnB9-106" value="" style="endArrow=classic;startArrow=classic;html=1;rounded=0;exitX=0.5;exitY=1;exitDx=0;exitDy=0;" parent="1" target="iSJP6n-plgs5U3rNxnB9-107" edge="1" source="iSJP6n-plgs5U3rNxnB9-31">
          <mxGeometry width="50" height="50" relative="1" as="geometry">
            <mxPoint x="718.5" y="1011" as="sourcePoint" />
            <mxPoint x="771.530303030303" y="1067" as="targetPoint" />
          </mxGeometry>
        </mxCell>
        <mxCell id="iSJP6n-plgs5U3rNxnB9-108" value="Shared Data" style="text;html=1;strokeColor=none;fillColor=none;align=center;verticalAlign=middle;whiteSpace=wrap;rounded=0;dashed=1;" parent="1" vertex="1">
          <mxGeometry x="625" y="1202" width="82.5" height="30" as="geometry" />
        </mxCell>
        <mxCell id="iSJP6n-plgs5U3rNxnB9-109" value="Executables" style="text;html=1;strokeColor=none;fillColor=none;align=center;verticalAlign=middle;whiteSpace=wrap;rounded=0;dashed=1;" parent="1" vertex="1">
          <mxGeometry x="642.25" y="939" width="60" height="30" as="geometry" />
        </mxCell>
        <mxCell id="iSJP6n-plgs5U3rNxnB9-112" value="Model" style="shape=tape;whiteSpace=wrap;html=1;fillColor=none;" parent="1" vertex="1">
          <mxGeometry x="642.25" y="976.6199999999999" width="60" height="46.75" as="geometry" />
        </mxCell>
        <mxCell id="AIP2rtYdTXtsvyKJKe4--35" value="&lt;span style=&quot;font-size: 14px;&quot;&gt;&lt;b&gt;5&lt;/b&gt;&lt;/span&gt;" style="text;html=1;strokeColor=none;fillColor=#dae8fc;align=center;verticalAlign=middle;whiteSpace=wrap;rounded=0;" parent="1" vertex="1">
          <mxGeometry x="532.38" y="832.12" width="40.25" height="30" as="geometry" />
        </mxCell>
        <mxCell id="THO80avu8P2htPNswEXX-20" value="" style="group" vertex="1" connectable="0" parent="1">
          <mxGeometry x="827" y="190" width="280" height="650" as="geometry" />
        </mxCell>
        <mxCell id="iSJP6n-plgs5U3rNxnB9-48" value="" style="rounded=1;whiteSpace=wrap;html=1;fillColor=#f5f5f5;fontColor=#333333;strokeColor=#666666;" parent="THO80avu8P2htPNswEXX-20" vertex="1">
          <mxGeometry width="280" height="650" as="geometry" />
        </mxCell>
        <mxCell id="AIP2rtYdTXtsvyKJKe4--16" value="" style="group" parent="THO80avu8P2htPNswEXX-20" vertex="1" connectable="0">
          <mxGeometry x="10" y="260" width="250" height="60" as="geometry" />
        </mxCell>
        <mxCell id="THO80avu8P2htPNswEXX-17" value="" style="group" vertex="1" connectable="0" parent="AIP2rtYdTXtsvyKJKe4--16">
          <mxGeometry width="250" height="60" as="geometry" />
        </mxCell>
        <mxCell id="iSJP6n-plgs5U3rNxnB9-51" value="Platform User Interface containing an authentication layer and a dashboard for access to the main pipelines.&amp;nbsp;" style="text;html=1;strokeColor=none;fillColor=none;align=left;verticalAlign=middle;whiteSpace=wrap;rounded=0;" parent="THO80avu8P2htPNswEXX-17" vertex="1">
          <mxGeometry x="32.89473684210527" width="217.10526315789474" height="60" as="geometry" />
        </mxCell>
        <mxCell id="AIP2rtYdTXtsvyKJKe4--7" value="&lt;b&gt;&lt;font style=&quot;font-size: 14px;&quot;&gt;2&lt;/font&gt;&lt;/b&gt;" style="text;html=1;strokeColor=none;fillColor=#dae8fc;align=center;verticalAlign=middle;whiteSpace=wrap;rounded=0;" parent="THO80avu8P2htPNswEXX-17" vertex="1">
          <mxGeometry y="7.5" width="26.48" height="22.5" as="geometry" />
        </mxCell>
        <mxCell id="AIP2rtYdTXtsvyKJKe4--18" value="" style="group" parent="THO80avu8P2htPNswEXX-20" vertex="1" connectable="0">
          <mxGeometry x="9.720000000000027" y="440" width="250" height="90" as="geometry" />
        </mxCell>
        <mxCell id="AIP2rtYdTXtsvyKJKe4--4" value="The different docker containers encapsulating the different tools/ applications available within Cardio-verse and being orchestrated through Docker-compose." style="text;html=1;strokeColor=none;fillColor=none;align=left;verticalAlign=middle;whiteSpace=wrap;rounded=0;" parent="AIP2rtYdTXtsvyKJKe4--18" vertex="1">
          <mxGeometry x="32.89473684210527" width="217.10526315789474" height="89.99999999999999" as="geometry" />
        </mxCell>
        <mxCell id="AIP2rtYdTXtsvyKJKe4--8" value="&lt;b&gt;&lt;font style=&quot;font-size: 14px;&quot;&gt;4&lt;/font&gt;&lt;/b&gt;" style="text;html=1;strokeColor=none;fillColor=#dae8fc;align=center;verticalAlign=middle;whiteSpace=wrap;rounded=0;" parent="AIP2rtYdTXtsvyKJKe4--18" vertex="1">
          <mxGeometry y="11.25" width="26.48" height="28.75" as="geometry" />
        </mxCell>
        <mxCell id="THO80avu8P2htPNswEXX-16" value="" style="group" vertex="1" connectable="0" parent="THO80avu8P2htPNswEXX-20">
          <mxGeometry x="11" y="46.06999999999999" width="239" height="183.93" as="geometry" />
        </mxCell>
        <mxCell id="iSJP6n-plgs5U3rNxnB9-50" value="User access to the platform. Three types of users based on function. &lt;br&gt;&lt;ul&gt;&lt;li&gt;Platform Developer:&amp;nbsp; Works on platform architecture code&lt;/li&gt;&lt;li&gt;Application Developer: Works on&amp;nbsp; building the dockerised tools&lt;/li&gt;&lt;li&gt;Platform User: Users who make used of the tools and functions available within the platform&lt;/li&gt;&lt;/ul&gt;" style="text;html=1;strokeColor=none;fillColor=none;align=left;verticalAlign=middle;whiteSpace=wrap;rounded=0;" parent="THO80avu8P2htPNswEXX-16" vertex="1">
          <mxGeometry x="35.89999999999998" width="203.1" height="183.93" as="geometry" />
        </mxCell>
        <mxCell id="AIP2rtYdTXtsvyKJKe4--6" value="&lt;b&gt;&lt;font style=&quot;font-size: 14px;&quot;&gt;1&lt;/font&gt;&lt;/b&gt;" style="text;html=1;strokeColor=none;fillColor=#dae8fc;align=center;verticalAlign=middle;whiteSpace=wrap;rounded=0;" parent="THO80avu8P2htPNswEXX-16" vertex="1">
          <mxGeometry width="26.42" height="23.93" as="geometry" />
        </mxCell>
        <mxCell id="THO80avu8P2htPNswEXX-18" value="" style="group" vertex="1" connectable="0" parent="THO80avu8P2htPNswEXX-20">
          <mxGeometry x="9.720000000000027" y="355" width="250.14" height="40" as="geometry" />
        </mxCell>
        <mxCell id="AIP2rtYdTXtsvyKJKe4--2" value="Access to the command line or node-graph based interface.&amp;nbsp;&amp;nbsp;" style="text;html=1;strokeColor=none;fillColor=none;align=left;verticalAlign=middle;whiteSpace=wrap;rounded=0;" parent="THO80avu8P2htPNswEXX-18" vertex="1">
          <mxGeometry x="32.90999999999997" width="217.23" height="40" as="geometry" />
        </mxCell>
        <mxCell id="AIP2rtYdTXtsvyKJKe4--10" value="&lt;b&gt;&lt;font style=&quot;font-size: 14px;&quot;&gt;3&lt;/font&gt;&lt;/b&gt;" style="text;html=1;strokeColor=none;fillColor=#dae8fc;align=center;verticalAlign=middle;whiteSpace=wrap;rounded=0;" parent="THO80avu8P2htPNswEXX-18" vertex="1">
          <mxGeometry y="6.25" width="26.33" height="27.083333333333336" as="geometry" />
        </mxCell>
        <mxCell id="THO80avu8P2htPNswEXX-19" value="" style="group" vertex="1" connectable="0" parent="THO80avu8P2htPNswEXX-20">
          <mxGeometry x="11.169999999999959" y="560" width="248.83000000000004" height="54.549999999999955" as="geometry" />
        </mxCell>
        <mxCell id="AIP2rtYdTXtsvyKJKe4--3" value="General infrastructure of the dockerised application containing&amp;nbsp; the executable files and data access." style="text;html=1;strokeColor=none;fillColor=none;align=left;verticalAlign=middle;whiteSpace=wrap;rounded=0;" parent="THO80avu8P2htPNswEXX-19" vertex="1">
          <mxGeometry x="35.73000000000002" width="213.1" height="54.55" as="geometry" />
        </mxCell>
        <mxCell id="AIP2rtYdTXtsvyKJKe4--9" value="&lt;b&gt;&lt;font style=&quot;font-size: 14px;&quot;&gt;5&lt;/font&gt;&lt;/b&gt;" style="text;html=1;strokeColor=none;fillColor=#dae8fc;align=center;verticalAlign=middle;whiteSpace=wrap;rounded=0;" parent="THO80avu8P2htPNswEXX-19" vertex="1">
          <mxGeometry width="28.83" height="24.55" as="geometry" />
        </mxCell>
      </root>
    </mxGraphModel>
  </diagram>
</mxfile>
